<svg xmlns="http://www.w3.org/2000/svg" width="15.693" height="13.564" viewBox="0 0 15.693 13.564">
  <g id="alert-triangle-outline" transform="translate(-1.519 -2.996)">
    <path id="Path_1218" data-name="Path 1218" d="M16.9,13.2,11.424,4.126a2.448,2.448,0,0,0-4.126,0L1.824,13.2a2.141,2.141,0,0,0-.036,2.141,2.4,2.4,0,0,0,2.1,1.213H14.836a2.4,2.4,0,0,0,2.1-1.185A2.141,2.141,0,0,0,16.9,13.2Zm-1.213,1.463a.935.935,0,0,1-.849.464H3.887a.935.935,0,0,1-.849-.464.714.714,0,0,1,0-.714L8.519,4.868a1.056,1.056,0,0,1,1.685,0l5.475,9.079A.714.714,0,0,1,15.686,14.668Z" transform="translate(0 0)" fill="#bd062d"/>
    <path id="Path_1219" data-name="Path 1219" d="M17.928,23.214a.714.714,0,1,1-.714-.714A.714.714,0,0,1,17.928,23.214Z" transform="translate(-7.852 -10.223)" fill="#bd062d"/>
    <path id="Path_1220" data-name="Path 1220" d="M17.214,12a.714.714,0,0,0-.714.714v2.855a.714.714,0,1,0,1.428,0V12.714A.714.714,0,0,0,17.214,12Z" transform="translate(-7.852 -4.719)" fill="#bd062d"/>
  </g>
</svg>
