<svg xmlns="http://www.w3.org/2000/svg" width="18" height="22.5" viewBox="0 0 18 22.5">
  <path id="bell" d="M18.375,21v1.125a3.375,3.375,0,1,1-6.75,0V21h-4.5a1.125,1.125,0,1,1,0-2.25H8.25V12a6.752,6.752,0,0,1,5.624-6.656V4.125a1.125,1.125,0,1,1,2.25,0V5.343A6.751,6.751,0,0,1,21.75,12v6.75h1.125a1.125,1.125,0,0,1,0,2.25h-4.5ZM10.5,18.75h9V12a4.5,4.5,0,1,0-9,0Zm4.5,4.5a1.125,1.125,0,0,0,1.125-1.125V21h-2.25v1.125A1.125,1.125,0,0,0,15,23.25Z" transform="translate(-6 -3)" fill-rule="evenodd"/>
</svg>
