<svg xmlns="http://www.w3.org/2000/svg" width="21.667" height="17.222" viewBox="0 0 21.667 17.222">
  <g id="ic-shopping-code" transform="translate(10.833 8.611)">
    <g id="ic-shopping-code-2" data-name="ic-shopping-code" transform="translate(-10 -7.778)">
      <path id="Path_215" data-name="Path 215" d="M7.444,5H3.178A.178.178,0,0,0,3,5.178V9.444" transform="translate(-3 -5)" fill="none" stroke="#000" stroke-linecap="round" stroke-linejoin="round" stroke-width="1.667" fill-rule="evenodd"/>
      <path id="Path_216" data-name="Path 216" d="M21.444,9.444V5.178A.178.178,0,0,0,21.267,5H17" transform="translate(-1.444 -5)" fill="none" stroke="#000" stroke-linecap="round" stroke-linejoin="round" stroke-width="1.667" fill-rule="evenodd"/>
      <path id="Path_217" data-name="Path 217" d="M17,19.444h4.267a.178.178,0,0,0,.178-.178V15" transform="translate(-1.444 -3.889)" fill="none" stroke="#000" stroke-linecap="round" stroke-linejoin="round" stroke-width="1.667" fill-rule="evenodd"/>
      <path id="Path_218" data-name="Path 218" d="M3,15v4.267a.178.178,0,0,0,.178.178H7.444" transform="translate(-3 -3.889)" fill="none" stroke="#000" stroke-linecap="round" stroke-linejoin="round" stroke-width="1.667" fill-rule="evenodd"/>
      <line id="Line_211" data-name="Line 211" y2="6.667" transform="translate(4.444 4.444)" fill="none" stroke="#000" stroke-linecap="round" stroke-linejoin="round" stroke-width="1.667"/>
      <line id="Line_212" data-name="Line 212" y2="6.667" transform="translate(10 4.444)" fill="none" stroke="#000" stroke-linecap="round" stroke-linejoin="round" stroke-width="1.667"/>
      <line id="Line_213" data-name="Line 213" y2="6.667" transform="translate(15.556 4.444)" fill="none" stroke="#000" stroke-linecap="round" stroke-linejoin="round" stroke-width="1.667"/>
    </g>
  </g>
</svg>
