<svg xmlns="http://www.w3.org/2000/svg" width="18.24" height="18.24" viewBox="0 0 18.24 18.24">
  <g id="copy" transform="translate(-2.25 -2.25)">
    <path id="Path_1062" data-name="Path 1062" d="M22.029,10.3V22.029H10.3V10.3H22.029m0-1.3H10.3A1.3,1.3,0,0,0,9,10.3V22.029a1.3,1.3,0,0,0,1.3,1.3H22.029a1.3,1.3,0,0,0,1.3-1.3V10.3A1.3,1.3,0,0,0,22.029,9Z" transform="translate(-2.841 -2.841)" fill="#e3b221"/>
    <path id="Path_1063" data-name="Path 1063" d="M3.553,12.673H2.25V3.553a1.3,1.3,0,0,1,1.3-1.3h9.12v1.3H3.553Z" transform="translate(0 0)" fill="#e3b221"/>
  </g>
</svg>
