<svg xmlns="http://www.w3.org/2000/svg" width="17.612" height="13.639" viewBox="0 0 17.612 13.639">
  <g id="eye" transform="translate(-0.567 -4.5)">
    <path id="Path_1313" data-name="Path 1313" d="M17.656,14.828A2.828,2.828,0,1,1,14.828,12,2.828,2.828,0,0,1,17.656,14.828Zm-1.414,0a1.414,1.414,0,1,1-1.414-1.414A1.414,1.414,0,0,1,16.242,14.828Z" transform="translate(-5.455 -3.509)" fill="#2a3548" fill-rule="evenodd"/>
    <path id="Path_1314" data-name="Path 1314" d="M9.373,4.5a9.1,9.1,0,0,1,8.806,6.819,9.1,9.1,0,0,1-17.612,0A9.1,9.1,0,0,1,9.373,4.5Zm0,12.123a7.58,7.58,0,0,1-7.231-5.3,7.58,7.58,0,0,1,14.461,0A7.581,7.581,0,0,1,9.373,16.623Z" fill="#2a3548" fill-rule="evenodd"/>
  </g>
</svg>
