<svg xmlns="http://www.w3.org/2000/svg" width="22.299" height="22.299" viewBox="0 0 22.299 22.299">
  <path id="headphonesalt" d="M19.511,18.118H17.421a.707.707,0,0,1-.7-.7V10.453a.707.707,0,0,1,.7-.7h.7a7.055,7.055,0,0,0-1.8-5.1,6.831,6.831,0,0,0-5.172-1.872A6.837,6.837,0,0,0,5.977,4.66a7.053,7.053,0,0,0-1.8,5.1h.7a.707.707,0,0,1,.7.7v6.968a.707.707,0,0,1-.7.7h-.7a2.787,2.787,0,0,0,2.787,2.787H8.362a1.375,1.375,0,0,1,1.394-1.394h1.394a1.348,1.348,0,0,1,.991.4,1.331,1.331,0,0,1,.4.98,1.374,1.374,0,0,1-.4.991,1.327,1.327,0,0,1-.991.414H6.968a4.031,4.031,0,0,1-2.961-1.22,4.035,4.035,0,0,1-1.22-2.961A2.352,2.352,0,0,1,.816,16.9,5.2,5.2,0,0,1,0,13.937a5.609,5.609,0,0,1,.381-2.091,3.781,3.781,0,0,1,1.013-1.5V9.756a9.537,9.537,0,0,1,.773-3.789A9.582,9.582,0,0,1,7.36.773a9.674,9.674,0,0,1,7.579,0,9.83,9.83,0,0,1,3.114,2.079,9.763,9.763,0,0,1,2.079,3.114,9.57,9.57,0,0,1,.773,3.79v.588a3.781,3.781,0,0,1,1.013,1.5,5.609,5.609,0,0,1,.381,2.091,5.2,5.2,0,0,1-.816,2.961A2.353,2.353,0,0,1,19.511,18.118Z" fill="#cddf00"/>
</svg>
