<svg xmlns="http://www.w3.org/2000/svg" width="18.779" height="18.761" viewBox="0 0 18.779 18.761">
  <g id="ic-actions-settings" transform="translate(8.554 10.544)">
    <g id="ic-actions-settings-2" data-name="ic-actions-settings" transform="translate(-8.053 -10.043)">
      <path id="Path_604" data-name="Path 604" d="M9.448,3.225l.08-.195a1.768,1.768,0,0,1,3.3.141l.062.2a1.768,1.768,0,0,0,2.37,1.1l.186-.08A1.768,1.768,0,0,1,17.68,6.824l-.1.186a1.768,1.768,0,0,0,.884,2.44l.195.08a1.768,1.768,0,0,1-.141,3.3l-.2.062a1.768,1.768,0,0,0-1.114,2.37l.08.186a1.768,1.768,0,0,1-2.432,2.237l-.186-.1a1.768,1.768,0,0,0-2.44.884l-.08.195a1.768,1.768,0,0,1-3.3-.141l-.062-.2A1.768,1.768,0,0,0,6.415,17.2l-.186.08a1.768,1.768,0,0,1-2.237-2.432l.1-.186a1.768,1.768,0,0,0-.884-2.44l-.195-.08a1.768,1.768,0,0,1,.141-3.3l.2-.062A1.768,1.768,0,0,0,4.47,6.417l-.08-.186A1.768,1.768,0,0,1,6.822,4.012l.186.1a1.768,1.768,0,0,0,2.44-.884Z" transform="translate(-1.947 -1.967)" fill="none" stroke="#fcfcfc" stroke-linecap="round" stroke-linejoin="bevel" stroke-width="1" fill-rule="evenodd"/>
      <circle id="Ellipse_238" data-name="Ellipse 238" cx="3.457" cy="3.457" r="3.457" transform="translate(5.431 5.414)" fill="none" stroke="#fcfcfc" stroke-linecap="round" stroke-linejoin="bevel" stroke-width="1"/>
    </g>
  </g>
</svg>
