<svg xmlns="http://www.w3.org/2000/svg" width="21.255" height="15.93" viewBox="0 0 21.255 15.93">
  <g id="ic-ecommerce-delivery" transform="translate(53.558 25.299)">
    <g id="ic-ecommerce-delivery-2" data-name="ic-ecommerce-delivery" transform="translate(-53.04 -24.785)">
      <g id="Vrstva_535" data-name="Vrstva 535" transform="translate(-0.018 -0.014)">
        <path id="Path_22" data-name="Path 22" d="M4.79,17.36H4a1.954,1.954,0,0,1-2-1.905V6.4A1.954,1.954,0,0,1,4,4.49h9.78a1.954,1.954,0,0,1,2,1.905v6.583" transform="translate(-2 -4.49)" fill="none" stroke="#fff" stroke-linecap="round" stroke-linejoin="round" stroke-width="1"/>
        <path id="Path_23" data-name="Path 23" d="M15.75,8.19h2.78a1.18,1.18,0,0,1,.93.45l2.26,3a1.81,1.81,0,0,1,.36,1.07v5a.2.2,0,0,1-.2.2H17.83" transform="translate(-1.825 -5.13)" fill="none" stroke="#fff" stroke-linecap="round" stroke-linejoin="round" stroke-width="1"/>
        <circle id="Ellipse_6" data-name="Ellipse 6" cx="2.24" cy="2.24" r="2.24" transform="translate(11.621 10.45)" fill="none" stroke="#fff" stroke-linecap="round" stroke-linejoin="round" stroke-width="1"/>
        <circle id="Ellipse_7" data-name="Ellipse 7" cx="2.24" cy="2.24" r="2.24" transform="translate(2.78 10.45)" fill="none" stroke="#fff" stroke-linecap="round" stroke-linejoin="round" stroke-width="1"/>
        <line id="Line_1" data-name="Line 1" x1="4" transform="translate(7.52 12.514)" fill="none" stroke="#fff" stroke-linecap="round" stroke-linejoin="round" stroke-width="1"/>
      </g>
    </g>
  </g>
</svg>
