<svg xmlns="http://www.w3.org/2000/svg" width="21.58" height="17.07" viewBox="0 0 21.58 17.07"><defs><style>.a{fill:none;stroke:#e7b522;stroke-linecap:round;stroke-linejoin:round;stroke-width:1.5px;}</style></defs><g transform="translate(53.79 25.535)"><g transform="translate(-53.04 -24.785)"><g transform="translate(-2 -4.49)"><path class="a" d="M4.79,18H4a2,2,0,0,1-2-2V6.49a2,2,0,0,1,2-2h9.78a2,2,0,0,1,2,2V13.4"/><path class="a" d="M15.75,8.19h2.78a1.18,1.18,0,0,1,.93.45l2.26,3a1.81,1.81,0,0,1,.36,1.07v5a.2.2,0,0,1-.2.2H18.83"/><circle class="a" cx="2.24" cy="2.24" r="2.24" transform="translate(14.27 15.58)"/><circle class="a" cx="2.24" cy="2.24" r="2.24" transform="translate(4.78 15.58)"/><line class="a" x1="5.13" transform="translate(9.15 17.95)"/></g></g></g></svg>