<svg xmlns="http://www.w3.org/2000/svg" width="17.938" height="18.878" viewBox="0 0 17.938 18.878">
  <g id="ic-security-secured-profile" transform="translate(10.529 11.085)">
    <g id="ic-security-secured-profile-2" data-name="ic-security-secured-profile" transform="translate(-10.028 -10.512)">
      <path id="Path_692" data-name="Path 692" d="M18.884,7.361a23.119,23.119,0,0,0-.177-2.626.971.971,0,0,0-1.1-.844c-.253,0-.8.1-1.419.127A6.207,6.207,0,0,1,14.5,3.881a6.3,6.3,0,0,1-1.849-1,12.591,12.591,0,0,1-1.368-1.115.971.971,0,0,0-1.326,0,15.267,15.267,0,0,1-1.3,1.089A6.561,6.561,0,0,1,6.8,3.881a6.756,6.756,0,0,1-1.925.152A14.541,14.541,0,0,1,3.3,3.881a.963.963,0,0,0-1.1.844c-.042.405-.152,1.461-.2,2.635a14.305,14.305,0,0,0,.22,3.5A10.978,10.978,0,0,0,5.466,15.8a27.1,27.1,0,0,0,3.9,3.057,2.238,2.238,0,0,0,2.533,0,26.921,26.921,0,0,0,3.682-3.1A11.231,11.231,0,0,0,18.648,10.9a14.643,14.643,0,0,0,.236-3.538Z" transform="translate(-1.969 -1.5)" fill="none" stroke="#fff" stroke-linecap="round" stroke-linejoin="round" stroke-width="1" fill-rule="evenodd"/>
      <path id="Path_693" data-name="Path 693" d="M15.444,18.345V17.222A4.222,4.222,0,0,0,11.222,13h0A4.222,4.222,0,0,0,7,17.222v1.123" transform="translate(-2.752 -3.289)" fill="none" stroke="#fff" stroke-linecap="round" stroke-linejoin="round" stroke-width="1" fill-rule="evenodd"/>
      <circle id="Ellipse_275" data-name="Ellipse 275" cx="2.111" cy="2.111" r="2.111" transform="translate(6.359 4.644)" fill="none" stroke="#fff" stroke-linecap="round" stroke-linejoin="round" stroke-width="1"/>
    </g>
  </g>
</svg>
