<svg xmlns="http://www.w3.org/2000/svg" width="21" height="17" viewBox="0 0 21 17">
  <g id="ic-statistics-2" transform="translate(-1.5 -3.5)">
    <line id="Line_77" data-name="Line 77" x2="20" transform="translate(2 20)" fill="none" stroke="#fcfcfc" stroke-linecap="round" stroke-linejoin="round" stroke-width="1"/>
    <path id="Path_62" data-name="Path 62" d="M5,20V8.2A.2.2,0,0,1,5.2,8H7.8a.2.2,0,0,1,.2.2V20" transform="translate(0)" fill="none" stroke="#fcfcfc" stroke-linecap="round" stroke-linejoin="round" stroke-width="1"/>
    <path id="Path_63" data-name="Path 63" d="M11,20V4.27c0-.15.09-.27.2-.27h2.6c.11,0,.2.12.2.27V20" transform="translate(0 0)" fill="none" stroke="#fcfcfc" stroke-linecap="round" stroke-linejoin="round" stroke-width="1"/>
    <path id="Path_64" data-name="Path 64" d="M17,20V11.15c0-.08.09-.15.2-.15h2.6c.11,0,.2.07.2.15V20" transform="translate(0)" fill="none" stroke="#fcfcfc" stroke-linecap="round" stroke-linejoin="round" stroke-width="1"/>
  </g>
</svg>
