<svg xmlns="http://www.w3.org/2000/svg" width="16.549" height="16.673" viewBox="0 0 16.549 16.673">
  <g id="link-line" transform="translate(-8.781 -6.085)">
    <path id="Path_1021" data-name="Path 1021" d="M14.1,20.907,12.4,22.586a2.754,2.754,0,0,1-3.869,0,2.7,2.7,0,0,1,0-3.821l3.229-3.2a2.754,2.754,0,0,1,3.869,0,2.657,2.657,0,0,1,.688,1.177,1.377,1.377,0,0,0,.186-.186l.888-.881a4.055,4.055,0,0,0-.792-1.115,4.13,4.13,0,0,0-5.81,0L7.556,17.788a4.068,4.068,0,0,0,0,5.776,4.13,4.13,0,0,0,5.81,0l2.513-2.492h-.344a5.507,5.507,0,0,1-1.439-.165Z" transform="translate(2.428 -2)" fill="#fff"/>
    <path id="Path_1022" data-name="Path 1022" d="M24.145,7.278a4.127,4.127,0,0,0-5.8,0l-2.51,2.49h.337a5.5,5.5,0,0,1,1.444.193L19.3,8.282a2.751,2.751,0,0,1,3.865,0,2.7,2.7,0,0,1,0,3.817l-3.226,3.2a2.751,2.751,0,0,1-3.865,0,2.655,2.655,0,0,1-.688-1.176,1.376,1.376,0,0,0-.193.158l-.887.88a4.051,4.051,0,0,0,.791,1.114,4.127,4.127,0,0,0,5.8,0l3.226-3.2a4.072,4.072,0,0,0,0-5.77Z" transform="translate(0)" fill="#fff"/>
  </g>
</svg>
