<svg xmlns="http://www.w3.org/2000/svg" width="16.551" height="21.065" viewBox="0 0 16.551 21.065">
  <g id="location" transform="translate(-5.625 -2.25)">
    <path id="Path_1267" data-name="Path 1267" d="M16.137,16.523A3.762,3.762,0,1,1,19.9,12.762a3.762,3.762,0,0,1-3.762,3.762Zm0-6.018a2.257,2.257,0,1,0,2.257,2.257A2.257,2.257,0,0,0,16.137,10.5Z" transform="translate(-2.236 -2.236)" fill="#e3b221"/>
    <path id="Path_1268" data-name="Path 1268" d="M13.9,23.315,7.554,15.83q-.132-.168-.261-.339a8.192,8.192,0,0,1-1.667-4.965,8.275,8.275,0,1,1,16.551,0,8.188,8.188,0,0,1-1.666,4.963v0s-.225.3-.259.336ZM8.492,14.584s.176.231.216.282L13.9,20.989l5.2-6.131c.033-.041.209-.275.21-.276a6.7,6.7,0,0,0,1.362-4.056,6.771,6.771,0,1,0-13.542,0,6.7,6.7,0,0,0,1.364,4.058Z" fill="#e3b221"/>
  </g>
</svg>
