<svg xmlns="http://www.w3.org/2000/svg" width="17.711" height="20.662" viewBox="0 0 17.711 20.662">
  <g id="lock" transform="translate(-4.5 -2.25)">
    <path id="Path_1234" data-name="Path 1234" d="M19.259,11.105a2.952,2.952,0,0,1,2.952,2.952v5.9a2.952,2.952,0,0,1-2.952,2.952H7.452A2.952,2.952,0,0,1,4.5,19.961v-5.9a2.952,2.952,0,0,1,2.952-2.952V8.154a5.9,5.9,0,1,1,11.807,0Zm-5.9-6.887a3.936,3.936,0,0,1,3.936,3.936v2.952H9.42V8.154a3.936,3.936,0,0,1,3.936-3.936Zm5.9,8.855H7.452a.984.984,0,0,0-.984.984v5.9a.984.984,0,0,0,.984.984H19.259a.984.984,0,0,0,.984-.984v-5.9A.984.984,0,0,0,19.259,13.073Z" fill="#707070" fill-rule="evenodd"/>
  </g>
</svg>
