<svg xmlns="http://www.w3.org/2000/svg" width="16.137" height="13.831" viewBox="0 0 16.137 13.831">
  <g id="money" transform="translate(-2.25 -4.5)">
    <path id="Path_1196" data-name="Path 1196" d="M2.25,24.75H18.387V25.9H2.25Z" transform="translate(0 -9.876)" fill="#fff"/>
    <path id="Path_1197" data-name="Path 1197" d="M2.25,29.25H18.387V30.4H2.25Z" transform="translate(0 -12.071)" fill="#fff"/>
    <path id="Path_1198" data-name="Path 1198" d="M25.9,11.25A1.153,1.153,0,1,0,27.055,12.4,1.153,1.153,0,0,0,25.9,11.25Z" transform="translate(-10.974 -3.292)" fill="#fff"/>
    <path id="Path_1199" data-name="Path 1199" d="M15.805,13.61a2.305,2.305,0,1,1,2.305-2.305A2.305,2.305,0,0,1,15.805,13.61Zm0-3.458a1.153,1.153,0,1,0,1.153,1.153A1.153,1.153,0,0,0,15.805,10.153Z" transform="translate(-5.487 -2.195)" fill="#fff"/>
    <path id="Path_1200" data-name="Path 1200" d="M7.9,11.25A1.153,1.153,0,1,0,9.055,12.4,1.153,1.153,0,0,0,7.9,11.25Z" transform="translate(-2.195 -3.292)" fill="#fff"/>
    <path id="Path_1201" data-name="Path 1201" d="M17.234,13.721H3.4A1.156,1.156,0,0,1,2.25,12.568V5.653A1.156,1.156,0,0,1,3.4,4.5H17.234a1.156,1.156,0,0,1,1.153,1.153v6.916A1.154,1.154,0,0,1,17.234,13.721Zm0-8.068H3.4v6.916H17.234Z" fill="#fff"/>
  </g>
</svg>
