<svg id="Layer_1" data-name="Layer 1" xmlns="http://www.w3.org/2000/svg" viewBox="0 0 841.89 459.5"><path d="M181.35,160.25a84,84,0,0,1,109.31,126l86.88,100.14a215.56,215.56,0,0,0,67.25-156.64c0-119.44-96.84-216.27-216.28-216.27a215.28,215.28,0,0,0-134,46.62Z"/><path d="M277.38,298a84,84,0,0,1-109.57-126.3L81,71.67A215.62,215.62,0,0,0,12.24,229.75C12.24,349.2,109.07,446,228.51,446A215.29,215.29,0,0,0,364.2,398.11Z"/><path d="M576.66,333.51l14.09-19.06-64.47-74.31L427.45,362.31c-11.8,13.27-9.79,26.77-9.79,26.77v48H598.78V364.9h-9c-20.92,0-23.91-14.65-13.15-31.39"/><path d="M670.48,122.12,657.27,143l65.32,75.29L822.49,91.7c8.15-8.34,7-23,7-23V18.62H648.36V91h9c20.92,0,23.91,14,13.15,31.17"/><path d="M818.9,355.47,588.9,91H618V18.62H417.61V75.84s0,13.27,9.05,22.72L658.09,364.9H629.15v72.33H829.53v-56s2-10.33-10.63-25.79"/></svg>