<svg width="15" height="26" viewBox="0 0 15 26" fill="none" xmlns="http://www.w3.org/2000/svg">
<g clip-path="url(#clip0_1443_58)">
<path d="M2.60078 0.493679H3.60547V0.090426C3.60547 0.0664435 3.59677 0.0434428 3.58127 0.0264846C3.56578 0.0095264 3.54477 0 3.52286 0H2.66329C2.64671 0 2.63082 0.00720922 2.61909 0.0200425C2.60737 0.0328757 2.60078 0.0502814 2.60078 0.0684304V0.493679Z" fill="#CCCCCC"/>
<path d="M2.41061 0.608793H2.86328V0.181101C2.86328 0.163114 2.85675 0.145863 2.84513 0.133145C2.83351 0.120426 2.81776 0.113281 2.80132 0.113281H2.47257C2.45614 0.113281 2.44038 0.120426 2.42876 0.133145C2.41714 0.145863 2.41061 0.163114 2.41061 0.181101V0.608793Z" fill="#F15A24"/>
<path d="M11.2922 0.495512H12.2969V0.0818722C12.2969 0.0601583 12.289 0.0393336 12.275 0.0239795C12.2609 0.00862548 12.2419 0 12.2221 0H11.3474C11.3326 0 11.3184 0.00643713 11.308 0.0178954C11.2975 0.0293536 11.2916 0.0448944 11.2916 0.0610988L11.2922 0.495512Z" fill="#CCCCCC"/>
<path d="M12.0401 0.612699H12.4922V0.185007C12.4922 0.167126 12.4857 0.149968 12.4742 0.137266C12.4627 0.124565 12.4471 0.117349 12.4308 0.117188H12.1015C12.0851 0.117349 12.0695 0.124565 12.058 0.137266C12.0465 0.149968 12.0401 0.167126 12.0401 0.185007V0.612699Z" fill="#F15A24"/>
<path d="M1.74967 0.21875H13.2266V0.612837H1.74967V0.21875Z" fill="black"/>
<path d="M6.88868 0.1875H8.08594V0.225381H6.88868V0.1875Z" fill="black"/>
<path d="M1.16347 3.99633H13.8086L13.1438 0.98721L13.1388 0.375H1.83326L1.82824 0.98721L1.16347 3.99633Z" fill="url(#paint0_linear_1443_58)"/>
<path d="M1.37812 4.1201L1.38281 4.24219L0.659519 4.27551L0.654825 4.15342L1.37812 4.1201Z" fill="#333333"/>
<path d="M1.36048 4.08203H1.38783C1.40232 4.08203 1.41406 4.09489 1.41406 4.11075V4.22622C1.41406 4.24208 1.40232 4.25494 1.38783 4.25494H1.36048C1.34599 4.25494 1.33425 4.24208 1.33425 4.22622V4.11075C1.33425 4.09489 1.34599 4.08203 1.36048 4.08203Z" fill="#333333"/>
<path d="M0.115838 4.6233L0.944149 4.28848C0.949538 4.28637 0.954486 4.2831 0.958706 4.27887C0.962926 4.27464 0.96633 4.26953 0.968722 4.26384C0.971113 4.25815 0.972444 4.25199 0.972633 4.24573C0.972822 4.23947 0.971866 4.23323 0.969822 4.22738L0.917355 4.07096C0.906945 4.04099 0.88619 4.01669 0.859563 4.00332C0.832936 3.98995 0.802573 3.98857 0.775025 3.99948L0.073417 4.28237C0.0459311 4.29364 0.0236084 4.31631 0.0112815 4.34547C-0.0010455 4.37463 -0.00238428 4.40794 0.00755449 4.43817L0.0633705 4.59458C0.0672738 4.60566 0.0748176 4.61475 0.084523 4.62006C0.0942284 4.62538 0.105396 4.62653 0.115838 4.6233Z" fill="black"/>
<path d="M13.6244 4.11902L14.3477 4.15234L14.343 4.27443L13.6197 4.24111L13.6244 4.11902Z" fill="#333333"/>
<path d="M13.6144 4.08203H13.6417C13.6562 4.08203 13.668 4.09489 13.668 4.11075V4.22622C13.668 4.24208 13.6562 4.25494 13.6417 4.25494H13.6144C13.5999 4.25494 13.5882 4.24208 13.5882 4.22622V4.11075C13.5882 4.09489 13.5999 4.08203 13.6144 4.08203Z" fill="#333333"/>
<path d="M14.8851 4.6233L14.0568 4.28848C14.0514 4.28637 14.0465 4.2831 14.0423 4.27887C14.038 4.27464 14.0346 4.26953 14.0322 4.26384C14.0298 4.25815 14.0285 4.25199 14.0283 4.24573C14.0281 4.23947 14.0291 4.23323 14.0311 4.22738L14.0836 4.07096C14.094 4.04099 14.1148 4.01669 14.1414 4.00332C14.168 3.98995 14.1984 3.98857 14.2259 3.99948L14.9275 4.28237C14.955 4.29364 14.9774 4.31631 14.9897 4.34547C15.002 4.37463 15.0033 4.40794 14.9934 4.43817L14.9376 4.59458C14.9337 4.60566 14.9261 4.61475 14.9164 4.62006C14.9067 4.62538 14.8956 4.62653 14.8851 4.6233Z" fill="black"/>
<path d="M7.82361 24.2383H7.82417C7.93854 24.2383 8.03125 24.3398 8.03125 24.465V25.7743C8.03125 25.8995 7.93854 26.001 7.82417 26.001H7.82361C7.70925 26.001 7.61654 25.8995 7.61654 25.7743V24.465C7.61654 24.3398 7.70925 24.2383 7.82361 24.2383Z" fill="black"/>
<path d="M7.22205 24.2383H7.22261C7.33698 24.2383 7.42969 24.3398 7.42969 24.465V25.7743C7.42969 25.8995 7.33698 26.001 7.22261 26.001H7.22205C7.10769 26.001 7.01497 25.8995 7.01497 25.7743V24.465C7.01497 24.3398 7.10769 24.2383 7.22205 24.2383Z" fill="black"/>
<path d="M12.5795 4.9375H14.0128C14.0597 4.9375 14.0977 4.97908 14.0977 5.03037V8.80689C14.0977 8.85818 14.0597 8.89976 14.0128 8.89976H12.5795C12.5326 8.89976 12.4946 8.85818 12.4946 8.80689V5.03037C12.4946 4.97908 12.5326 4.9375 12.5795 4.9375Z" fill="#333333"/>
<path d="M13.516 5.02734H14.1055C14.1184 5.02734 14.1289 5.03883 14.1289 5.05301V5.14038C14.1289 5.15455 14.1184 5.16604 14.1055 5.16604H13.516C13.5031 5.16604 13.4926 5.15455 13.4926 5.14038V5.05301C13.4926 5.03883 13.5031 5.02734 13.516 5.02734Z" fill="black"/>
<path d="M13.516 5.23047H14.1055C14.1184 5.23047 14.1289 5.24196 14.1289 5.25613V5.3435C14.1289 5.35767 14.1184 5.36916 14.1055 5.36916H13.516C13.5031 5.36916 13.4926 5.35767 13.4926 5.3435V5.25613C13.4926 5.24196 13.5031 5.23047 13.516 5.23047Z" fill="black"/>
<path d="M13.516 5.43359H14.1055C14.1184 5.43359 14.1289 5.44508 14.1289 5.45926V5.54663C14.1289 5.5608 14.1184 5.57229 14.1055 5.57229H13.516C13.5031 5.57229 13.4926 5.5608 13.4926 5.54663V5.45926C13.4926 5.44508 13.5031 5.43359 13.516 5.43359Z" fill="black"/>
<path d="M13.516 5.63672H14.1055C14.1184 5.63672 14.1289 5.64821 14.1289 5.66238V5.74975C14.1289 5.76392 14.1184 5.77541 14.1055 5.77541H13.516C13.5031 5.77541 13.4926 5.76392 13.4926 5.74975V5.66238C13.4926 5.64821 13.5031 5.63672 13.516 5.63672Z" fill="black"/>
<path d="M13.516 5.83984H14.1055C14.1184 5.83984 14.1289 5.85133 14.1289 5.86551V5.95288C14.1289 5.96705 14.1184 5.97854 14.1055 5.97854H13.516C13.5031 5.97854 13.4926 5.96705 13.4926 5.95288V5.86551C13.4926 5.85133 13.5031 5.83984 13.516 5.83984Z" fill="black"/>
<path d="M13.516 6.04297H14.1055C14.1184 6.04297 14.1289 6.05446 14.1289 6.06863V6.156C14.1289 6.17017 14.1184 6.18166 14.1055 6.18166H13.516C13.5031 6.18166 13.4926 6.17017 13.4926 6.156V6.06863C13.4926 6.05446 13.5031 6.04297 13.516 6.04297Z" fill="black"/>
<path d="M13.516 6.24609H14.1055C14.1184 6.24609 14.1289 6.25758 14.1289 6.27176V6.35913C14.1289 6.3733 14.1184 6.38479 14.1055 6.38479H13.516C13.5031 6.38479 13.4926 6.3733 13.4926 6.35913V6.27176C13.4926 6.25758 13.5031 6.24609 13.516 6.24609Z" fill="black"/>
<path d="M13.516 6.44922H14.1055C14.1184 6.44922 14.1289 6.46071 14.1289 6.47488V6.56225C14.1289 6.57642 14.1184 6.58791 14.1055 6.58791H13.516C13.5031 6.58791 13.4926 6.57642 13.4926 6.56225V6.47488C13.4926 6.46071 13.5031 6.44922 13.516 6.44922Z" fill="black"/>
<path d="M13.516 6.64844H14.1055C14.1184 6.64844 14.1289 6.65993 14.1289 6.6741V6.76147C14.1289 6.77564 14.1184 6.78713 14.1055 6.78713H13.516C13.5031 6.78713 13.4926 6.77564 13.4926 6.76147V6.6741C13.4926 6.65993 13.5031 6.64844 13.516 6.64844Z" fill="black"/>
<path d="M13.516 6.85156H14.1055C14.1184 6.85156 14.1289 6.86305 14.1289 6.87722V6.9646C14.1289 6.97877 14.1184 6.99026 14.1055 6.99026H13.516C13.5031 6.99026 13.4926 6.97877 13.4926 6.9646V6.87722C13.4926 6.86305 13.5031 6.85156 13.516 6.85156Z" fill="black"/>
<path d="M13.516 7.05469H14.1055C14.1184 7.05469 14.1289 7.06618 14.1289 7.08035V7.16772C14.1289 7.18189 14.1184 7.19338 14.1055 7.19338H13.516C13.5031 7.19338 13.4926 7.18189 13.4926 7.16772V7.08035C13.4926 7.06618 13.5031 7.05469 13.516 7.05469Z" fill="black"/>
<path d="M13.516 7.25781H14.1055C14.1184 7.25781 14.1289 7.2693 14.1289 7.28347V7.37085C14.1289 7.38502 14.1184 7.39651 14.1055 7.39651H13.516C13.5031 7.39651 13.4926 7.38502 13.4926 7.37085V7.28347C13.4926 7.2693 13.5031 7.25781 13.516 7.25781Z" fill="black"/>
<path d="M13.516 7.46094H14.1055C14.1184 7.46094 14.1289 7.47243 14.1289 7.4866V7.57397C14.1289 7.58814 14.1184 7.59963 14.1055 7.59963H13.516C13.5031 7.59963 13.4926 7.58814 13.4926 7.57397V7.4866C13.4926 7.47243 13.5031 7.46094 13.516 7.46094Z" fill="black"/>
<path d="M13.516 7.66406H14.1055C14.1184 7.66406 14.1289 7.67555 14.1289 7.68972V7.7771C14.1289 7.79127 14.1184 7.80276 14.1055 7.80276H13.516C13.5031 7.80276 13.4926 7.79127 13.4926 7.7771V7.68972C13.4926 7.67555 13.5031 7.66406 13.516 7.66406Z" fill="black"/>
<path d="M13.516 7.86719H14.1055C14.1184 7.86719 14.1289 7.87868 14.1289 7.89285V7.98022C14.1289 7.99439 14.1184 8.00588 14.1055 8.00588H13.516C13.5031 8.00588 13.4926 7.99439 13.4926 7.98022V7.89285C13.4926 7.87868 13.5031 7.86719 13.516 7.86719Z" fill="black"/>
<path d="M13.516 8.07031H14.1055C14.1184 8.07031 14.1289 8.0818 14.1289 8.09597V8.18335C14.1289 8.19752 14.1184 8.20901 14.1055 8.20901H13.516C13.5031 8.20901 13.4926 8.19752 13.4926 8.18335V8.09597C13.4926 8.0818 13.5031 8.07031 13.516 8.07031Z" fill="black"/>
<path d="M13.516 8.07031H14.1055C14.1184 8.07031 14.1289 8.0818 14.1289 8.09597V8.18335C14.1289 8.19752 14.1184 8.20901 14.1055 8.20901H13.516C13.5031 8.20901 13.4926 8.19752 13.4926 8.18335V8.09597C13.4926 8.0818 13.5031 8.07031 13.516 8.07031Z" fill="black"/>
<path d="M13.516 8.27344H14.1055C14.1184 8.27344 14.1289 8.28493 14.1289 8.2991V8.38647C14.1289 8.40064 14.1184 8.41213 14.1055 8.41213H13.516C13.5031 8.41213 13.4926 8.40064 13.4926 8.38647V8.2991C13.4926 8.28493 13.5031 8.27344 13.516 8.27344Z" fill="black"/>
<path d="M13.516 8.47656H14.1055C14.1184 8.47656 14.1289 8.48805 14.1289 8.50222V8.5896C14.1289 8.60377 14.1184 8.61526 14.1055 8.61526H13.516C13.5031 8.61526 13.4926 8.60377 13.4926 8.5896V8.50222C13.4926 8.48805 13.5031 8.47656 13.516 8.47656Z" fill="black"/>
<path d="M13.516 8.67969H14.1055C14.1184 8.67969 14.1289 8.69118 14.1289 8.70535V8.79272C14.1289 8.80689 14.1184 8.81838 14.1055 8.81838H13.516C13.5031 8.81838 13.4926 8.80689 13.4926 8.79272V8.70535C13.4926 8.69118 13.5031 8.67969 13.516 8.67969Z" fill="black"/>
<path d="M12.5795 20.0938H14.0128C14.0597 20.0938 14.0977 20.1353 14.0977 20.1866V23.9631C14.0977 24.0144 14.0597 24.056 14.0128 24.056H12.5795C12.5326 24.056 12.4946 24.0144 12.4946 23.9631V20.1866C12.4946 20.1353 12.5326 20.0938 12.5795 20.0938Z" fill="#333333"/>
<path d="M13.516 20.1836H14.1055C14.1184 20.1836 14.1289 20.1951 14.1289 20.2093V20.2966C14.1289 20.3108 14.1184 20.3223 14.1055 20.3223H13.516C13.5031 20.3223 13.4926 20.3108 13.4926 20.2966V20.2093C13.4926 20.1951 13.5031 20.1836 13.516 20.1836Z" fill="black"/>
<path d="M13.516 20.3867H14.1055C14.1184 20.3867 14.1289 20.3982 14.1289 20.4124V20.4998C14.1289 20.5139 14.1184 20.5254 14.1055 20.5254H13.516C13.5031 20.5254 13.4926 20.5139 13.4926 20.4998V20.4124C13.4926 20.3982 13.5031 20.3867 13.516 20.3867Z" fill="black"/>
<path d="M13.516 20.5898H14.1055C14.1184 20.5898 14.1289 20.6013 14.1289 20.6155V20.7029C14.1289 20.717 14.1184 20.7285 14.1055 20.7285H13.516C13.5031 20.7285 13.4926 20.717 13.4926 20.7029V20.6155C13.4926 20.6013 13.5031 20.5898 13.516 20.5898Z" fill="black"/>
<path d="M13.516 20.793H14.1055C14.1184 20.793 14.1289 20.8045 14.1289 20.8186V20.906C14.1289 20.9202 14.1184 20.9317 14.1055 20.9317H13.516C13.5031 20.9317 13.4926 20.9202 13.4926 20.906V20.8186C13.4926 20.8045 13.5031 20.793 13.516 20.793Z" fill="black"/>
<path d="M13.516 20.9961H14.1055C14.1184 20.9961 14.1289 21.0076 14.1289 21.0218V21.1091C14.1289 21.1233 14.1184 21.1348 14.1055 21.1348H13.516C13.5031 21.1348 13.4926 21.1233 13.4926 21.1091V21.0218C13.4926 21.0076 13.5031 20.9961 13.516 20.9961Z" fill="black"/>
<path d="M13.516 21.1992H14.1055C14.1184 21.1992 14.1289 21.2107 14.1289 21.2249V21.3123C14.1289 21.3264 14.1184 21.3379 14.1055 21.3379H13.516C13.5031 21.3379 13.4926 21.3264 13.4926 21.3123V21.2249C13.4926 21.2107 13.5031 21.1992 13.516 21.1992Z" fill="black"/>
<path d="M13.516 21.4023H14.1055C14.1184 21.4023 14.1289 21.4138 14.1289 21.428V21.5154C14.1289 21.5295 14.1184 21.541 14.1055 21.541H13.516C13.5031 21.541 13.4926 21.5295 13.4926 21.5154V21.428C13.4926 21.4138 13.5031 21.4023 13.516 21.4023Z" fill="black"/>
<path d="M13.516 21.6055H14.1055C14.1184 21.6055 14.1289 21.617 14.1289 21.6311V21.7185C14.1289 21.7327 14.1184 21.7442 14.1055 21.7442H13.516C13.5031 21.7442 13.4926 21.7327 13.4926 21.7185V21.6311C13.4926 21.617 13.5031 21.6055 13.516 21.6055Z" fill="black"/>
<path d="M13.516 21.8047H14.1055C14.1184 21.8047 14.1289 21.8162 14.1289 21.8303V21.9177C14.1289 21.9319 14.1184 21.9434 14.1055 21.9434H13.516C13.5031 21.9434 13.4926 21.9319 13.4926 21.9177V21.8303C13.4926 21.8162 13.5031 21.8047 13.516 21.8047Z" fill="black"/>
<path d="M13.516 22.0078H14.1055C14.1184 22.0078 14.1289 22.0193 14.1289 22.0335V22.1208C14.1289 22.135 14.1184 22.1465 14.1055 22.1465H13.516C13.5031 22.1465 13.4926 22.135 13.4926 22.1208V22.0335C13.4926 22.0193 13.5031 22.0078 13.516 22.0078Z" fill="black"/>
<path d="M13.516 22.2109H14.1055C14.1184 22.2109 14.1289 22.2224 14.1289 22.2366V22.324C14.1289 22.3381 14.1184 22.3496 14.1055 22.3496H13.516C13.5031 22.3496 13.4926 22.3381 13.4926 22.324V22.2366C13.4926 22.2224 13.5031 22.2109 13.516 22.2109Z" fill="black"/>
<path d="M13.516 22.4141H14.1055C14.1184 22.4141 14.1289 22.4256 14.1289 22.4397V22.5271C14.1289 22.5413 14.1184 22.5528 14.1055 22.5528H13.516C13.5031 22.5528 13.4926 22.5413 13.4926 22.5271V22.4397C13.4926 22.4256 13.5031 22.4141 13.516 22.4141Z" fill="black"/>
<path d="M13.516 22.6172H14.1055C14.1184 22.6172 14.1289 22.6287 14.1289 22.6428V22.7302C14.1289 22.7444 14.1184 22.7559 14.1055 22.7559H13.516C13.5031 22.7559 13.4926 22.7444 13.4926 22.7302V22.6428C13.4926 22.6287 13.5031 22.6172 13.516 22.6172Z" fill="black"/>
<path d="M13.516 22.8203H14.1055C14.1184 22.8203 14.1289 22.8318 14.1289 22.846V22.9333C14.1289 22.9475 14.1184 22.959 14.1055 22.959H13.516C13.5031 22.959 13.4926 22.9475 13.4926 22.9333V22.846C13.4926 22.8318 13.5031 22.8203 13.516 22.8203Z" fill="black"/>
<path d="M13.516 23.0234H14.1055C14.1184 23.0234 14.1289 23.0349 14.1289 23.0491V23.1365C14.1289 23.1506 14.1184 23.1621 14.1055 23.1621H13.516C13.5031 23.1621 13.4926 23.1506 13.4926 23.1365V23.0491C13.4926 23.0349 13.5031 23.0234 13.516 23.0234Z" fill="black"/>
<path d="M13.516 23.2266H14.1055C14.1184 23.2266 14.1289 23.2381 14.1289 23.2522V23.3396C14.1289 23.3538 14.1184 23.3653 14.1055 23.3653H13.516C13.5031 23.3653 13.4926 23.3538 13.4926 23.3396V23.2522C13.4926 23.2381 13.5031 23.2266 13.516 23.2266Z" fill="black"/>
<path d="M13.516 23.2266H14.1055C14.1184 23.2266 14.1289 23.2381 14.1289 23.2522V23.3396C14.1289 23.3538 14.1184 23.3653 14.1055 23.3653H13.516C13.5031 23.3653 13.4926 23.3538 13.4926 23.3396V23.2522C13.4926 23.2381 13.5031 23.2266 13.516 23.2266Z" fill="black"/>
<path d="M13.516 23.4297H14.1055C14.1184 23.4297 14.1289 23.4412 14.1289 23.4553V23.5427C14.1289 23.5569 14.1184 23.5684 14.1055 23.5684H13.516C13.5031 23.5684 13.4926 23.5569 13.4926 23.5427V23.4553C13.4926 23.4412 13.5031 23.4297 13.516 23.4297Z" fill="black"/>
<path d="M13.516 23.6328H14.1055C14.1184 23.6328 14.1289 23.6443 14.1289 23.6585V23.7458C14.1289 23.76 14.1184 23.7715 14.1055 23.7715H13.516C13.5031 23.7715 13.4926 23.76 13.4926 23.7458V23.6585C13.4926 23.6443 13.5031 23.6328 13.516 23.6328Z" fill="black"/>
<path d="M13.516 23.8359H14.1055C14.1184 23.8359 14.1289 23.8474 14.1289 23.8616V23.949C14.1289 23.9631 14.1184 23.9746 14.1055 23.9746H13.516C13.5031 23.9746 13.4926 23.9631 13.4926 23.949V23.8616C13.4926 23.8474 13.5031 23.8359 13.516 23.8359Z" fill="black"/>
<path d="M0.977898 4.9375H2.41125C2.45811 4.9375 2.49609 4.97908 2.49609 5.03037V8.80689C2.49609 8.85818 2.45811 8.89976 2.41125 8.89976H0.977898C0.931042 8.89976 0.893057 8.85818 0.893057 8.80689V5.03037C0.893057 4.97908 0.931042 4.9375 0.977898 4.9375Z" fill="#333333"/>
<path d="M0.883234 5.02734H1.47265C1.4856 5.02734 1.49609 5.03883 1.49609 5.05301V5.14038C1.49609 5.15455 1.4856 5.16604 1.47265 5.16604H0.883234C0.870287 5.16604 0.859791 5.15455 0.859791 5.14038V5.05301C0.859791 5.03883 0.870287 5.02734 0.883234 5.02734Z" fill="black"/>
<path d="M0.883234 5.23047H1.47265C1.4856 5.23047 1.49609 5.24196 1.49609 5.25613V5.3435C1.49609 5.35767 1.4856 5.36916 1.47265 5.36916H0.883234C0.870287 5.36916 0.859791 5.35767 0.859791 5.3435V5.25613C0.859791 5.24196 0.870287 5.23047 0.883234 5.23047Z" fill="black"/>
<path d="M0.883234 5.43359H1.47265C1.4856 5.43359 1.49609 5.44508 1.49609 5.45926V5.54663C1.49609 5.5608 1.4856 5.57229 1.47265 5.57229H0.883234C0.870287 5.57229 0.859791 5.5608 0.859791 5.54663V5.45926C0.859791 5.44508 0.870287 5.43359 0.883234 5.43359Z" fill="black"/>
<path d="M0.883234 5.63672H1.47265C1.4856 5.63672 1.49609 5.64821 1.49609 5.66238V5.74975C1.49609 5.76392 1.4856 5.77541 1.47265 5.77541H0.883234C0.870287 5.77541 0.859791 5.76392 0.859791 5.74975V5.66238C0.859791 5.64821 0.870287 5.63672 0.883234 5.63672Z" fill="black"/>
<path d="M0.883234 5.83984H1.47265C1.4856 5.83984 1.49609 5.85133 1.49609 5.86551V5.95288C1.49609 5.96705 1.4856 5.97854 1.47265 5.97854H0.883234C0.870287 5.97854 0.859791 5.96705 0.859791 5.95288V5.86551C0.859791 5.85133 0.870287 5.83984 0.883234 5.83984Z" fill="black"/>
<path d="M0.883234 6.04297H1.47265C1.4856 6.04297 1.49609 6.05446 1.49609 6.06863V6.156C1.49609 6.17017 1.4856 6.18166 1.47265 6.18166H0.883234C0.870287 6.18166 0.859791 6.17017 0.859791 6.156V6.06863C0.859791 6.05446 0.870287 6.04297 0.883234 6.04297Z" fill="black"/>
<path d="M0.883234 6.24609H1.47265C1.4856 6.24609 1.49609 6.25758 1.49609 6.27176V6.35913C1.49609 6.3733 1.4856 6.38479 1.47265 6.38479H0.883234C0.870287 6.38479 0.859791 6.3733 0.859791 6.35913V6.27176C0.859791 6.25758 0.870287 6.24609 0.883234 6.24609Z" fill="black"/>
<path d="M0.883234 6.44922H1.47265C1.4856 6.44922 1.49609 6.46071 1.49609 6.47488V6.56225C1.49609 6.57642 1.4856 6.58791 1.47265 6.58791H0.883234C0.870287 6.58791 0.859791 6.57642 0.859791 6.56225V6.47488C0.859791 6.46071 0.870287 6.44922 0.883234 6.44922Z" fill="black"/>
<path d="M0.883234 6.64844H1.47265C1.4856 6.64844 1.49609 6.65993 1.49609 6.6741V6.76147C1.49609 6.77564 1.4856 6.78713 1.47265 6.78713H0.883234C0.870287 6.78713 0.859791 6.77564 0.859791 6.76147V6.6741C0.859791 6.65993 0.870287 6.64844 0.883234 6.64844Z" fill="black"/>
<path d="M0.883234 6.85156H1.47265C1.4856 6.85156 1.49609 6.86305 1.49609 6.87722V6.9646C1.49609 6.97877 1.4856 6.99026 1.47265 6.99026H0.883234C0.870287 6.99026 0.859791 6.97877 0.859791 6.9646V6.87722C0.859791 6.86305 0.870287 6.85156 0.883234 6.85156Z" fill="black"/>
<path d="M0.883234 7.05469H1.47265C1.4856 7.05469 1.49609 7.06618 1.49609 7.08035V7.16772C1.49609 7.18189 1.4856 7.19338 1.47265 7.19338H0.883234C0.870287 7.19338 0.859791 7.18189 0.859791 7.16772V7.08035C0.859791 7.06618 0.870287 7.05469 0.883234 7.05469Z" fill="black"/>
<path d="M0.883234 7.25781H1.47265C1.4856 7.25781 1.49609 7.2693 1.49609 7.28347V7.37085C1.49609 7.38502 1.4856 7.39651 1.47265 7.39651H0.883234C0.870287 7.39651 0.859791 7.38502 0.859791 7.37085V7.28347C0.859791 7.2693 0.870287 7.25781 0.883234 7.25781Z" fill="black"/>
<path d="M0.883234 7.46094H1.47265C1.4856 7.46094 1.49609 7.47243 1.49609 7.4866V7.57397C1.49609 7.58814 1.4856 7.59963 1.47265 7.59963H0.883234C0.870287 7.59963 0.859791 7.58814 0.859791 7.57397V7.4866C0.859791 7.47243 0.870287 7.46094 0.883234 7.46094Z" fill="black"/>
<path d="M0.883234 7.66406H1.47265C1.4856 7.66406 1.49609 7.67555 1.49609 7.68972V7.7771C1.49609 7.79127 1.4856 7.80276 1.47265 7.80276H0.883234C0.870287 7.80276 0.859791 7.79127 0.859791 7.7771V7.68972C0.859791 7.67555 0.870287 7.66406 0.883234 7.66406Z" fill="black"/>
<path d="M0.883234 7.86719H1.47265C1.4856 7.86719 1.49609 7.87868 1.49609 7.89285V7.98022C1.49609 7.99439 1.4856 8.00588 1.47265 8.00588H0.883234C0.870287 8.00588 0.859791 7.99439 0.859791 7.98022V7.89285C0.859791 7.87868 0.870287 7.86719 0.883234 7.86719Z" fill="black"/>
<path d="M0.883234 8.07031H1.47265C1.4856 8.07031 1.49609 8.0818 1.49609 8.09597V8.18335C1.49609 8.19752 1.4856 8.20901 1.47265 8.20901H0.883234C0.870287 8.20901 0.859791 8.19752 0.859791 8.18335V8.09597C0.859791 8.0818 0.870287 8.07031 0.883234 8.07031Z" fill="black"/>
<path d="M0.883234 8.07031H1.47265C1.4856 8.07031 1.49609 8.0818 1.49609 8.09597V8.18335C1.49609 8.19752 1.4856 8.20901 1.47265 8.20901H0.883234C0.870287 8.20901 0.859791 8.19752 0.859791 8.18335V8.09597C0.859791 8.0818 0.870287 8.07031 0.883234 8.07031Z" fill="black"/>
<path d="M0.883234 8.27344H1.47265C1.4856 8.27344 1.49609 8.28493 1.49609 8.2991V8.38647C1.49609 8.40064 1.4856 8.41213 1.47265 8.41213H0.883234C0.870287 8.41213 0.859791 8.40064 0.859791 8.38647V8.2991C0.859791 8.28493 0.870287 8.27344 0.883234 8.27344Z" fill="black"/>
<path d="M0.883234 8.47656H1.47265C1.4856 8.47656 1.49609 8.48805 1.49609 8.50222V8.5896C1.49609 8.60377 1.4856 8.61526 1.47265 8.61526H0.883234C0.870287 8.61526 0.859791 8.60377 0.859791 8.5896V8.50222C0.859791 8.48805 0.870287 8.47656 0.883234 8.47656Z" fill="black"/>
<path d="M0.883234 8.67969H1.47265C1.4856 8.67969 1.49609 8.69118 1.49609 8.70535V8.79272C1.49609 8.80689 1.4856 8.81838 1.47265 8.81838H0.883234C0.870287 8.81838 0.859791 8.80689 0.859791 8.79272V8.70535C0.859791 8.69118 0.870287 8.67969 0.883234 8.67969Z" fill="black"/>
<path d="M0.977898 20.0938H2.41125C2.45811 20.0938 2.49609 20.1353 2.49609 20.1866V23.9631C2.49609 24.0144 2.45811 24.056 2.41125 24.056H0.977898C0.931042 24.056 0.893057 24.0144 0.893057 23.9631V20.1866C0.893057 20.1353 0.931042 20.0938 0.977898 20.0938Z" fill="#333333"/>
<path d="M0.883234 20.1836H1.47265C1.4856 20.1836 1.49609 20.1951 1.49609 20.2093V20.2966C1.49609 20.3108 1.4856 20.3223 1.47265 20.3223H0.883234C0.870287 20.3223 0.859791 20.3108 0.859791 20.2966V20.2093C0.859791 20.1951 0.870287 20.1836 0.883234 20.1836Z" fill="black"/>
<path d="M0.883234 20.3867H1.47265C1.4856 20.3867 1.49609 20.3982 1.49609 20.4124V20.4998C1.49609 20.5139 1.4856 20.5254 1.47265 20.5254H0.883234C0.870287 20.5254 0.859791 20.5139 0.859791 20.4998V20.4124C0.859791 20.3982 0.870287 20.3867 0.883234 20.3867Z" fill="black"/>
<path d="M0.883234 20.5898H1.47265C1.4856 20.5898 1.49609 20.6013 1.49609 20.6155V20.7029C1.49609 20.717 1.4856 20.7285 1.47265 20.7285H0.883234C0.870287 20.7285 0.859791 20.717 0.859791 20.7029V20.6155C0.859791 20.6013 0.870287 20.5898 0.883234 20.5898Z" fill="black"/>
<path d="M0.883234 20.793H1.47265C1.4856 20.793 1.49609 20.8045 1.49609 20.8186V20.906C1.49609 20.9202 1.4856 20.9317 1.47265 20.9317H0.883234C0.870287 20.9317 0.859791 20.9202 0.859791 20.906V20.8186C0.859791 20.8045 0.870287 20.793 0.883234 20.793Z" fill="black"/>
<path d="M0.883234 20.9961H1.47265C1.4856 20.9961 1.49609 21.0076 1.49609 21.0218V21.1091C1.49609 21.1233 1.4856 21.1348 1.47265 21.1348H0.883234C0.870287 21.1348 0.859791 21.1233 0.859791 21.1091V21.0218C0.859791 21.0076 0.870287 20.9961 0.883234 20.9961Z" fill="black"/>
<path d="M0.883234 21.1992H1.47265C1.4856 21.1992 1.49609 21.2107 1.49609 21.2249V21.3123C1.49609 21.3264 1.4856 21.3379 1.47265 21.3379H0.883234C0.870287 21.3379 0.859791 21.3264 0.859791 21.3123V21.2249C0.859791 21.2107 0.870287 21.1992 0.883234 21.1992Z" fill="black"/>
<path d="M0.883234 21.4023H1.47265C1.4856 21.4023 1.49609 21.4138 1.49609 21.428V21.5154C1.49609 21.5295 1.4856 21.541 1.47265 21.541H0.883234C0.870287 21.541 0.859791 21.5295 0.859791 21.5154V21.428C0.859791 21.4138 0.870287 21.4023 0.883234 21.4023Z" fill="black"/>
<path d="M0.883234 21.6055H1.47265C1.4856 21.6055 1.49609 21.617 1.49609 21.6311V21.7185C1.49609 21.7327 1.4856 21.7442 1.47265 21.7442H0.883234C0.870287 21.7442 0.859791 21.7327 0.859791 21.7185V21.6311C0.859791 21.617 0.870287 21.6055 0.883234 21.6055Z" fill="black"/>
<path d="M0.883234 21.8047H1.47265C1.4856 21.8047 1.49609 21.8162 1.49609 21.8303V21.9177C1.49609 21.9319 1.4856 21.9434 1.47265 21.9434H0.883234C0.870287 21.9434 0.859791 21.9319 0.859791 21.9177V21.8303C0.859791 21.8162 0.870287 21.8047 0.883234 21.8047Z" fill="black"/>
<path d="M0.883234 22.0078H1.47265C1.4856 22.0078 1.49609 22.0193 1.49609 22.0335V22.1208C1.49609 22.135 1.4856 22.1465 1.47265 22.1465H0.883234C0.870287 22.1465 0.859791 22.135 0.859791 22.1208V22.0335C0.859791 22.0193 0.870287 22.0078 0.883234 22.0078Z" fill="black"/>
<path d="M0.883234 22.2109H1.47265C1.4856 22.2109 1.49609 22.2224 1.49609 22.2366V22.324C1.49609 22.3381 1.4856 22.3496 1.47265 22.3496H0.883234C0.870287 22.3496 0.859791 22.3381 0.859791 22.324V22.2366C0.859791 22.2224 0.870287 22.2109 0.883234 22.2109Z" fill="black"/>
<path d="M0.883234 22.4141H1.47265C1.4856 22.4141 1.49609 22.4256 1.49609 22.4397V22.5271C1.49609 22.5413 1.4856 22.5528 1.47265 22.5528H0.883234C0.870287 22.5528 0.859791 22.5413 0.859791 22.5271V22.4397C0.859791 22.4256 0.870287 22.4141 0.883234 22.4141Z" fill="black"/>
<path d="M0.883234 22.6172H1.47265C1.4856 22.6172 1.49609 22.6287 1.49609 22.6428V22.7302C1.49609 22.7444 1.4856 22.7559 1.47265 22.7559H0.883234C0.870287 22.7559 0.859791 22.7444 0.859791 22.7302V22.6428C0.859791 22.6287 0.870287 22.6172 0.883234 22.6172Z" fill="black"/>
<path d="M0.883234 22.8203H1.47265C1.4856 22.8203 1.49609 22.8318 1.49609 22.846V22.9333C1.49609 22.9475 1.4856 22.959 1.47265 22.959H0.883234C0.870287 22.959 0.859791 22.9475 0.859791 22.9333V22.846C0.859791 22.8318 0.870287 22.8203 0.883234 22.8203Z" fill="black"/>
<path d="M0.883234 23.0234H1.47265C1.4856 23.0234 1.49609 23.0349 1.49609 23.0491V23.1365C1.49609 23.1506 1.4856 23.1621 1.47265 23.1621H0.883234C0.870287 23.1621 0.859791 23.1506 0.859791 23.1365V23.0491C0.859791 23.0349 0.870287 23.0234 0.883234 23.0234Z" fill="black"/>
<path d="M0.883234 23.2266H1.47265C1.4856 23.2266 1.49609 23.2381 1.49609 23.2522V23.3396C1.49609 23.3538 1.4856 23.3653 1.47265 23.3653H0.883234C0.870287 23.3653 0.859791 23.3538 0.859791 23.3396V23.2522C0.859791 23.2381 0.870287 23.2266 0.883234 23.2266Z" fill="black"/>
<path d="M0.883234 23.2266H1.47265C1.4856 23.2266 1.49609 23.2381 1.49609 23.2522V23.3396C1.49609 23.3538 1.4856 23.3653 1.47265 23.3653H0.883234C0.870287 23.3653 0.859791 23.3538 0.859791 23.3396V23.2522C0.859791 23.2381 0.870287 23.2266 0.883234 23.2266Z" fill="black"/>
<path d="M0.883234 23.4297H1.47265C1.4856 23.4297 1.49609 23.4412 1.49609 23.4553V23.5427C1.49609 23.5569 1.4856 23.5684 1.47265 23.5684H0.883234C0.870287 23.5684 0.859791 23.5569 0.859791 23.5427V23.4553C0.859791 23.4412 0.870287 23.4297 0.883234 23.4297Z" fill="black"/>
<path d="M0.883234 23.6328H1.47265C1.4856 23.6328 1.49609 23.6443 1.49609 23.6585V23.7458C1.49609 23.76 1.4856 23.7715 1.47265 23.7715H0.883234C0.870287 23.7715 0.859791 23.76 0.859791 23.7458V23.6585C0.859791 23.6443 0.870287 23.6328 0.883234 23.6328Z" fill="black"/>
<path d="M0.883234 23.8359H1.47265C1.4856 23.8359 1.49609 23.8474 1.49609 23.8616V23.949C1.49609 23.9631 1.4856 23.9746 1.47265 23.9746H0.883234C0.870287 23.9746 0.859791 23.9631 0.859791 23.949V23.8616C0.859791 23.8474 0.870287 23.8359 0.883234 23.8359Z" fill="black"/>
<path d="M10.3038 0.8125H11.9141V0.984188H10.3038V0.8125Z" fill="black"/>
<path d="M3.10065 0.8125H4.71094V0.984188H3.10065V0.8125Z" fill="black"/>
<path d="M6.65924 0.8125H8.26953V0.984188H6.65924V0.8125Z" fill="black"/>
<path d="M1.28294 24.8711H13.6953V25.369H1.28294V24.8711Z" fill="#333333"/>
<path d="M1.28294 20.3672H13.6953V20.8651H1.28294V20.3672Z" fill="#333333"/>
<path d="M1.28294 14.5586H13.6953V15.0565H1.28294V14.5586Z" fill="#333333"/>
<path d="M1.38952 10.0191H13.5892L13.8125 9.64453H1.16626L1.38952 10.0191Z" fill="#B3B3B3"/>
<path d="M10.1843 9.88831C10.1865 9.8884 10.1888 9.8879 10.1908 9.88683C10.1929 9.88577 10.1946 9.88418 10.196 9.8822L10.2518 9.79849C10.2532 9.79601 10.2539 9.79315 10.2539 9.79024C10.2539 9.78733 10.2532 9.78448 10.2518 9.78199C10.2506 9.77938 10.2488 9.77718 10.2465 9.77566C10.2442 9.77415 10.2416 9.77338 10.239 9.77344H4.72713C4.72446 9.77338 4.72184 9.77415 4.71956 9.77566C4.71729 9.77718 4.71546 9.77938 4.71429 9.78199C4.71307 9.78454 4.71243 9.78737 4.71243 9.79024C4.71243 9.79312 4.71307 9.79595 4.71429 9.79849L4.7701 9.8822C4.77134 9.88417 4.77301 9.88577 4.77496 9.88684C4.77691 9.88791 4.77908 9.88841 4.78127 9.88831H10.1843Z" fill="#4D4D4D"/>
<path d="M4.72992 9.78897L4.78574 9.87268H10.1848L10.2406 9.78836H4.7288M4.7288 9.75781H10.2418C10.2469 9.75795 10.252 9.75964 10.2564 9.7627C10.2608 9.76576 10.2643 9.77007 10.2666 9.77517C10.2689 9.78026 10.2699 9.78595 10.2694 9.79162C10.269 9.79728 10.2671 9.80271 10.2641 9.8073L10.2083 9.89101C10.2056 9.89485 10.2021 9.89795 10.1981 9.90008C10.1942 9.9022 10.1898 9.90328 10.1854 9.90323H4.78797C4.78362 9.90333 4.77932 9.90227 4.77543 9.90014C4.77154 9.89801 4.76818 9.89487 4.76564 9.89101L4.70983 9.8073C4.70674 9.80266 4.70489 9.79719 4.70447 9.79147C4.70405 9.78575 4.70508 9.78002 4.70745 9.7749C4.70981 9.76978 4.71342 9.76548 4.71788 9.76246C4.72234 9.75945 4.72747 9.75784 4.73271 9.75781H4.7288Z" fill="#333333"/>
<path d="M1.16626 3.99609H13.8125V9.64346H1.16626V3.99609Z" fill="#E6E6E6"/>
<path d="M1.47276 10.1094H13.5039V24.7786H1.47276V10.1094Z" fill="#1A1A1A"/>
<path d="M1.55479 10.2028V24.6881H13.4185V10.2028H1.55479ZM1.38734 10.0195H13.5859V24.8714H1.38734V10.0195Z" fill="#808080"/>
<path d="M1.88526 10.7954H13.0864L13.418 10.1875L1.55427 10.1881L1.88526 10.7954Z" fill="#333333"/>
<path d="M12.7868 3.64129C12.822 3.64129 12.8568 3.63371 12.8893 3.61897C12.9218 3.60423 12.9513 3.58263 12.9762 3.5554C13.0011 3.52816 13.0208 3.49583 13.0343 3.46025C13.0478 3.42467 13.0547 3.38653 13.0547 3.34802L12.8314 1.77473C12.8318 1.73587 12.8251 1.69731 12.8119 1.66128C12.7986 1.62524 12.7789 1.59243 12.754 1.56472C12.7292 1.53702 12.6995 1.51497 12.6668 1.49984C12.6341 1.48471 12.599 1.4768 12.5635 1.47656H9.622C9.55099 1.47672 9.48293 1.50767 9.43272 1.56264C9.38251 1.6176 9.35423 1.69211 9.35409 1.76984L9.46572 3.34558C9.46557 3.38425 9.47238 3.42258 9.48577 3.45837C9.49915 3.49416 9.51885 3.52671 9.54372 3.55417C9.5686 3.58163 9.59818 3.60346 9.63076 3.61841C9.66335 3.63336 9.6983 3.64113 9.73363 3.64129H12.7868Z" fill="#8B8C8C"/>
<path d="M9.62032 1.50641C9.55701 1.50641 9.49627 1.53386 9.4514 1.58275C9.40652 1.63164 9.38117 1.698 9.38087 1.7673L9.4925 3.34243V3.34732C9.49265 3.41695 9.51798 3.48368 9.56296 3.53291C9.60794 3.58215 9.6689 3.60988 9.73251 3.61004H12.7862C12.8492 3.61005 12.9097 3.58296 12.9546 3.53461C12.9995 3.48626 13.0252 3.42053 13.0262 3.3516L12.803 1.7783V1.76914C12.8028 1.69951 12.7775 1.63278 12.7325 1.58354C12.6875 1.5343 12.6266 1.50657 12.5629 1.50641H9.62144M9.62144 1.44531H12.5629C12.6414 1.44531 12.7166 1.47943 12.7721 1.54016C12.8276 1.60089 12.8588 1.68325 12.8588 1.76914L13.082 3.34732C13.082 3.4332 13.0509 3.51557 12.9954 3.5763C12.9399 3.63703 12.8647 3.67114 12.7862 3.67114H9.73307C9.65461 3.67114 9.57937 3.63703 9.52389 3.5763C9.46841 3.51557 9.43725 3.4332 9.43725 3.34732L9.32561 1.76914C9.32576 1.6833 9.35698 1.60103 9.41242 1.54034C9.46787 1.47964 9.54302 1.44547 9.62144 1.44531Z" fill="#333333"/>
<g opacity="0.13">
<path d="M9.77048 3.61247H12.741C12.7755 3.61852 12.8108 3.61638 12.8445 3.6062C12.8781 3.59602 12.9094 3.57804 12.9362 3.55348C12.963 3.52891 12.9846 3.49834 12.9997 3.46382C13.0147 3.42931 13.0228 3.39165 13.0234 3.35341L9.37363 1.8125L9.48247 3.30637C9.48247 3.475 9.58294 3.62897 9.77048 3.61247Z" fill="white"/>
</g>
<path d="M8.98152 3.64129C9.06097 3.64113 9.13712 3.60651 9.1933 3.54502C9.24948 3.48352 9.2811 3.40016 9.28125 3.31319L9.16962 1.80772C9.16984 1.76442 9.16226 1.7215 9.14731 1.68141C9.13235 1.64132 9.11033 1.60486 9.08249 1.5741C9.05465 1.54334 9.02154 1.51889 8.98506 1.50216C8.94858 1.48542 8.90944 1.47672 8.86989 1.47656H6.1042C6.02466 1.47672 5.94842 1.51143 5.89222 1.57306C5.83603 1.63468 5.80447 1.7182 5.80447 1.80527L5.69284 3.31564C5.69343 3.40223 5.72527 3.48506 5.78141 3.54606C5.83756 3.60707 5.91346 3.6413 5.99257 3.64129H8.98152Z" fill="#8B8C8C"/>
<path d="M6.10364 1.50641C6.03149 1.50657 5.96236 1.53806 5.9114 1.59396C5.86043 1.64986 5.83181 1.7256 5.83181 1.80457V1.80946L5.72018 3.31494C5.72092 3.39338 5.74986 3.46834 5.80074 3.52358C5.85162 3.57882 5.92034 3.60989 5.99201 3.61004H8.98095C9.05262 3.60989 9.12134 3.57882 9.17222 3.52358C9.2231 3.46834 9.25204 3.39338 9.25278 3.31494L9.14115 1.80946V1.80457C9.14115 1.7256 9.11253 1.64986 9.06156 1.59396C9.0106 1.53806 8.94147 1.50657 8.86932 1.50641H6.10364ZM6.10364 1.44531H8.86932C8.9124 1.44531 8.95505 1.45461 8.99483 1.47267C9.03462 1.49073 9.07076 1.51721 9.1012 1.55057C9.13163 1.58394 9.15575 1.62355 9.17218 1.66714C9.18862 1.71072 9.19704 1.75742 9.19696 1.80457L9.30859 3.31249C9.30859 3.40761 9.27408 3.49884 9.21263 3.5661C9.15119 3.63336 9.06785 3.67114 8.98095 3.67114H5.99201C5.90511 3.67114 5.82177 3.63336 5.76033 3.5661C5.69888 3.49884 5.66437 3.40761 5.66437 3.31249L5.776 1.80457C5.77592 1.75742 5.78434 1.71072 5.80078 1.66714C5.81721 1.62355 5.84133 1.58394 5.87176 1.55057C5.90219 1.51721 5.93834 1.49073 5.97813 1.47267C6.01791 1.45461 6.06056 1.44531 6.10364 1.44531Z" fill="#333333"/>
<path d="M5.18238 3.64252C5.2712 3.64252 5.35638 3.60389 5.41918 3.53514C5.48199 3.46639 5.51727 3.37315 5.51727 3.27592L5.62891 1.84316C5.62891 1.74593 5.59362 1.65268 5.53082 1.58393C5.46801 1.51519 5.38283 1.47656 5.29401 1.47656H2.48702C2.3982 1.47656 2.31302 1.51519 2.25021 1.58393C2.18741 1.65268 2.15213 1.74593 2.15213 1.84316L1.92886 3.27898C1.93004 3.37536 1.96584 3.46735 2.02851 3.53505C2.09119 3.60274 2.17571 3.64069 2.26376 3.64068L5.18238 3.64252Z" fill="#8B8C8C"/>
<path d="M2.48646 1.50824C2.40499 1.50841 2.3269 1.54395 2.26935 1.60706C2.21179 1.67018 2.17947 1.75572 2.17947 1.8449V1.84979V1.85529L1.9562 3.28072C1.95752 3.36895 1.99043 3.45308 2.04784 3.51501C2.10525 3.57694 2.18259 3.61173 2.26319 3.61188H5.18181C5.26328 3.61171 5.34136 3.57617 5.39892 3.51306C5.45648 3.44994 5.4888 3.3644 5.4888 3.27522V3.2685L5.60043 1.84062C5.59985 1.75187 5.56726 1.66695 5.50977 1.60436C5.45228 1.54177 5.37453 1.50657 5.29345 1.50641H2.48646M2.48646 1.44531H5.29345C5.38972 1.44547 5.482 1.48745 5.55002 1.56203C5.61804 1.6366 5.65625 1.73768 5.65625 1.84307L5.54462 3.27339C5.54469 3.32559 5.53536 3.3773 5.51716 3.42556C5.49896 3.47381 5.47225 3.51766 5.43855 3.55461C5.40486 3.59155 5.36484 3.62086 5.32078 3.64085C5.27673 3.66085 5.2295 3.67114 5.18181 3.67114H2.26319C2.2155 3.67114 2.16828 3.66085 2.12423 3.64085C2.08017 3.62086 2.04015 3.59155 2.00645 3.55461C1.97276 3.51766 1.94605 3.47381 1.92785 3.42556C1.90965 3.3773 1.90032 3.32559 1.90039 3.27339L2.12365 1.84307C2.12365 1.73768 2.16186 1.6366 2.22988 1.56203C2.2979 1.48745 2.39018 1.44547 2.48646 1.44531Z" fill="#333333"/>
<g opacity="0.13">
<path d="M2.29045 3.61315H5.17614C5.21793 3.61301 5.25927 3.60371 5.29772 3.5858C5.33618 3.56789 5.37097 3.54174 5.40005 3.50889C5.42912 3.47604 5.4519 3.43714 5.46703 3.3945C5.48216 3.35186 5.48935 3.30634 5.48815 3.26061L2.18719 1.86328L1.95891 3.26855C1.95802 3.31565 1.96612 3.36243 1.98269 3.4059C1.99926 3.44938 2.02394 3.48858 2.05514 3.52102C2.08635 3.55345 2.1234 3.5784 2.16392 3.59427C2.20444 3.61013 2.24753 3.61656 2.29045 3.61315Z" fill="white"/>
</g>
<g opacity="0.13">
<path d="M6.05603 3.61308H8.94171C9.15493 3.6198 9.27661 3.44506 9.25038 3.25932L5.83611 1.8125L5.72448 3.26971C5.72383 3.31668 5.7321 3.36328 5.74877 3.40656C5.76544 3.44984 5.79015 3.48886 5.82132 3.52115C5.85249 3.55343 5.88945 3.57827 5.92985 3.5941C5.97026 3.60992 6.01322 3.61639 6.05603 3.61308Z" fill="white"/>
</g>
<path d="M1.88868 10.7969H13.0898V24.4347H1.88868V10.7969Z" fill="#4D4D4D"/>
<path d="M1.88868 14.6914H13.0898V14.9236H1.88868V14.6914Z" fill="#383838"/>
<path d="M1.88868 20.2695H13.0898V20.5017H1.88868V20.2695Z" fill="#383838"/>
<path d="M1.88526 24.3984H13.0864L13.418 24.6862L1.55427 24.6868L1.88526 24.3984Z" fill="#333333"/>
<path d="M7.42988 0.965365L9.08984 2.53072L9.08091 2.41646L7.45555 0.933594L7.42988 0.965365Z" fill="black"/>
<path d="M7.39695 1.02457L9.05691 2.65102L9.08203 2.55754L7.42206 0.992188L7.39695 1.02457Z" fill="black"/>
<path d="M9.16797 3.21756L9.10378 2.55831L8.98322 1.89844L8.96089 1.90577L9.02508 2.56564L9.1462 3.2255L9.16797 3.21756Z" fill="black"/>
<path d="M7.46872 1.11114C7.39535 1.11114 7.33588 1.04604 7.33588 0.965728C7.33588 0.885417 7.39535 0.820312 7.46872 0.820312C7.54209 0.820312 7.60156 0.885417 7.60156 0.965728C7.60156 1.04604 7.54209 1.11114 7.46872 1.11114Z" fill="black"/>
<path d="M12.207 4.21875H11.2023C11.2023 4.35006 11.25 4.47601 11.3347 4.56891C11.4195 4.66182 11.5345 4.7141 11.6545 4.71426H11.7745C11.8892 4.71426 11.9992 4.66437 12.0803 4.57557C12.1615 4.48677 12.207 4.36633 12.207 4.24075V4.21875Z" fill="black"/>
<path d="M3.80859 4.21875H2.80391C2.80391 4.35006 2.85152 4.47601 2.93629 4.56891C3.02106 4.66182 3.13606 4.7141 3.25602 4.71426H3.37602C3.49075 4.71426 3.60077 4.66437 3.6819 4.57557C3.76302 4.48677 3.80859 4.36633 3.80859 4.24075V4.21875Z" fill="black"/>
</g>
<defs>
<linearGradient id="paint0_linear_1443_58" x1="7.48575" y1="3.97555" x2="7.47438" y2="0.137942" gradientUnits="userSpaceOnUse">
<stop stop-color="#333333"/>
<stop offset="0.65" stop-color="#333333"/>
<stop offset="0.74" stop-color="#1A1A1A"/>
</linearGradient>
<clipPath id="clip0_1443_58">
<rect width="15" height="26" fill="white" transform="matrix(-1 0 0 1 15 0)"/>
</clipPath>
</defs>
</svg>
