<svg xmlns="http://www.w3.org/2000/svg" width="16.468" height="16.468" viewBox="0 0 16.468 16.468">
  <path id="radar-line" d="M16.97,9.984A6.986,6.986,0,1,1,9.535,3V4.844a5.159,5.159,0,1,0,5.589,5.14h-1A4.142,4.142,0,1,1,9.485,5.842v2.2A1.982,1.982,0,0,0,7.938,9.984a2,2,0,0,0,3.992,0,1.977,1.977,0,0,0-1.5-1.9V2.05A1.382,1.382,0,0,0,9.984,2a7.984,7.984,0,1,0,7.984,7.984Zm-5.988,0a1,1,0,1,1-1-1A1,1,0,0,1,10.982,9.984Z" transform="translate(-1.75 -1.75)" fill="#2a3548" stroke="#2a3548" stroke-width="0.5"/>
</svg>
