<svg xmlns="http://www.w3.org/2000/svg" width="20.851" height="18.825" viewBox="0 0 20.851 18.825">
  <g id="receipt-outline" transform="translate(-13.649 -9.343)" opacity="0.65">
    <path id="Path_1027" data-name="Path 1027" d="M11.25,15.907V3.375l1.392.7,1.392-.7,1.39.7,1.408-.7,1.379.7,1.383-.7,1.389.7,1.4-.7,1.393.7,1.392-.7v9.747" transform="translate(8.576 6.718)" fill="none" stroke="#000" stroke-linejoin="round" stroke-width="1.5"/>
    <path id="Path_1028" data-name="Path 1028" d="M21.6,19.125v4.838a3.456,3.456,0,0,1-3.456,3.456h0a3.456,3.456,0,0,1-3.456-3.456V21.889H2.941a.685.685,0,0,0-.691.691c0,2.764.291,4.838,3.456,4.838h12.44" transform="translate(12.149)" fill="none" stroke="#000" stroke-linejoin="round" stroke-width="1.5"/>
    <path id="Path_1029" data-name="Path 1029" d="M15.75,10.125h6.116" transform="translate(7.98 4.103)" fill="none" stroke="#000" stroke-linecap="round" stroke-linejoin="round" stroke-width="1.5"/>
    <path id="Path_1030" data-name="Path 1030" d="M15.75,10.125h4.3" transform="translate(7.98 7.103)" fill="none" stroke="#000" stroke-linecap="round" stroke-linejoin="round" stroke-width="1.5"/>
  </g>
</svg>
