<svg width="800" height="800" viewBox="0 0 800 800" fill="none" xmlns="http://www.w3.org/2000/svg">
<g clip-path="url(#clip0_1501_56)">
<path d="M400.001 130.435C409.566 130.435 417.392 122.609 417.392 113.044V104.348C417.392 94.7831 409.566 86.957 400.001 86.957C390.435 86.957 382.609 94.7831 382.609 104.348V113.044C382.609 122.609 390.435 130.435 400.001 130.435Z" fill="#E7B522"/>
<path d="M400.001 669.566C390.435 669.566 382.609 677.392 382.609 686.958V695.653C382.609 705.219 390.435 713.045 400.001 713.045C409.566 713.045 417.392 705.219 417.392 695.653V686.958C417.392 677.392 409.566 669.566 400.001 669.566Z" fill="#E7B522"/>
<path d="M113.044 382.609H104.348C94.7831 382.609 86.957 390.435 86.957 400.001C86.957 409.566 94.7831 417.392 104.348 417.392H113.044C122.609 417.392 130.435 409.566 130.435 400.001C130.435 390.435 122.609 382.609 113.044 382.609Z" fill="#E7B522"/>
<path d="M695.653 382.609H686.958C677.392 382.609 669.566 390.435 669.566 400.001C669.566 409.566 677.392 417.392 686.958 417.392H695.653C705.219 417.392 713.045 409.566 713.045 400.001C713.045 390.435 705.219 382.609 695.653 382.609Z" fill="#E7B522"/>
<path d="M203.479 179.131C196.523 172.175 186.088 172.175 179.131 179.131C172.175 186.088 172.175 196.523 179.131 203.479L185.218 209.566C188.697 213.044 193.044 214.784 197.392 214.784C201.74 214.784 206.088 213.044 209.566 209.566C216.523 202.61 216.523 192.175 209.566 185.218L203.479 179.131Z" fill="#E7B522"/>
<path d="M185.218 590.436L179.131 596.523C172.175 603.48 172.175 613.914 179.131 620.871C182.61 624.349 186.958 626.088 191.305 626.088C195.653 626.088 200.001 624.349 203.479 620.871L209.566 614.784C216.523 607.827 216.523 597.393 209.566 590.436C202.61 583.48 192.175 583.48 185.218 590.436Z" fill="#E7B522"/>
<path d="M596.523 179.131L590.436 185.218C583.48 192.175 583.48 202.61 590.436 209.566C593.914 213.044 598.262 214.784 602.61 214.784C606.958 214.784 611.306 213.044 614.784 209.566L620.871 203.479C627.827 196.523 627.827 186.088 620.871 179.131C613.914 172.175 603.48 172.175 596.523 179.131Z" fill="#E7B522"/>
<path d="M417.392 393.043V234.782C417.392 225.217 409.566 217.391 400.001 217.391C390.435 217.391 382.609 225.217 382.609 234.782V399.999C382.609 404.347 384.348 408.695 387.827 412.173L578.262 602.608C581.74 606.086 586.088 607.825 590.435 607.825C594.783 607.825 599.131 606.086 602.609 602.608C609.566 595.652 609.566 585.217 602.609 578.26L417.392 393.043Z" fill="#E7B522"/>
<path d="M400 0C179.13 0 0 179.13 0 400C0 620.87 179.13 800 400 800C620.87 800 800 620.87 800 400C800 179.13 620.87 0 400 0ZM400 765.217C198.261 765.217 34.7826 601.739 34.7826 400C34.7826 198.261 198.261 34.7826 400 34.7826C601.739 34.7826 765.217 198.261 765.217 400C765.217 601.739 601.739 765.217 400 765.217Z" fill="#E7B522"/>
</g>
<defs>
<clipPath id="clip0_1501_56">
<rect width="800" height="800" fill="white"/>
</clipPath>
</defs>
</svg>
