<svg xmlns="http://www.w3.org/2000/svg" width="15.613" height="14.638" viewBox="0 0 15.613 14.638">
  <g id="star" transform="translate(-0.003 -1.122)">
    <path id="Path_1110" data-name="Path 1110" d="M2.8,15.126a.518.518,0,0,0,.728.579L7.81,13.5l4.283,2.2a.518.518,0,0,0,.728-.578l-.81-4.616,3.438-3.275a.543.543,0,0,0-.276-.927L10.393,5.63,8.261,1.408a.5.5,0,0,0-.9,0L5.226,5.631.447,6.31a.543.543,0,0,0-.276.927l3.438,3.275L2.8,15.127Z" transform="translate(0)" fill="#e3b221" fill-rule="evenodd"/>
  </g>
</svg>
