<svg width="44" height="24" viewBox="0 0 44 24" fill="none" xmlns="http://www.w3.org/2000/svg">
<g clip-path="url(#clip0_1600_953)">
<path d="M12 24C8.6667 24 5.83333 22.8333 3.5 20.5C1.16667 18.1667 0 15.3333 0 12C0 8.6667 1.16667 5.8333 3.5 3.5C5.83333 1.1667 8.6667 0 12 0C14.6 0 16.7917 0.625 18.575 1.875C20.3583 3.125 21.6833 4.7833 22.55 6.85H44V17.15H38.7V24H29.4V17.15H22.55C21.6833 19.2167 20.3583 20.875 18.575 22.125C16.7917 23.375 14.6 24 12 24ZM12 21C14.3667 21 16.3083 20.2167 17.825 18.65C19.3417 17.0833 20.2333 15.5833 20.5 14.15H32.6V21H35.7V14.15H41V9.85H20.5C20.2333 8.4167 19.3417 6.9167 17.825 5.35C16.3083 3.7833 14.3667 3 12 3C9.5 3 7.375 3.875 5.625 5.625C3.875 7.375 3 9.5 3 12C3 14.5 3.875 16.625 5.625 18.375C7.375 20.125 9.5 21 12 21ZM12 15.4C12.9667 15.4 13.775 15.075 14.425 14.425C15.075 13.775 15.4 12.9667 15.4 12C15.4 11.0333 15.075 10.225 14.425 9.575C13.775 8.925 12.9667 8.6 12 8.6C11.0333 8.6 10.225 8.925 9.575 9.575C8.925 10.225 8.6 11.0333 8.6 12C8.6 12.9667 8.925 13.775 9.575 14.425C10.225 15.075 11.0333 15.4 12 15.4Z" fill="#707070"/>
</g>
<defs>
<clipPath id="clip0_1600_953">
<rect width="44" height="24" fill="white"/>
</clipPath>
</defs>
</svg>
